<svg xmlns="http://www.w3.org/2000/svg" width="600" height="140"><path d="M450.264 47.644v53.186c0 13.542 6.56 21.1 19.68 21.1q5.268 0 10.382-.465 5.115-.465 8.678-1.396V47.644H504.5v82.039q-6.973 2.481-16.116 3.566a137 137 0 0 1-18.44 1.24c-11.57 0-20.351-3.68-26.343-9.469q-8.988-8.684-8.988-26.36V47.643zm-240.064 0v53.186c0 13.542 6.56 21.1 19.68 21.1q5.268 0 10.382-.465t8.678-1.396V47.644h15.496v82.039q-6.974 2.481-16.116 3.566a137 137 0 0 1-18.44 1.24c-11.57 0-20.352-3.68-26.343-9.469q-8.988-8.684-8.988-26.36V47.643zM386.72 20.2l-13.973 2.534-.031 84.579c0 16.23 8.783 26.868 28.1 26.868 4.753 0 13.968-1.29 19.444-2.22l-1.845-10.948c-.107.43-12.328 1.67-18.848 1.314-6.521-.357-12.404-5.674-12.973-11.136l.031-51.141h32.197V47.633h-32.197zM118.52 5.5l-15.66 2.534v121.649c9.194 3.205 18.958 4.817 29.289 4.817 1.768 0 3.48-.061 5.126-.188v-.03c30.546.146 46.355-24.073 42.266-52.18-3.213-19.823-19.667-36.565-38.921-36.565-7.645 0-13.74 2.069-18.286 3.723a48 48 0 0 0-3.814 1.626zm21.944 52.612c17.185.847 24.07 15.97 24.605 30.84.73 20.33-13.46 34.668-32.607 32.974-4.421-.391-9.086-.552-13.942-1.69V64.275a24.7 24.7 0 0 1 6.908-4.16c3.616-1.344 8.641-2.318 15.036-2.002m160.696 74.196h-15.65V51.055q7.127-2.48 15.805-3.566 8.833-1.24 18.13-1.24 34.711 0 34.711 34.578v51.481h-15.496V78.656q0-19.848-19.215-19.848-5.114 0-9.917.466-4.804.465-8.368 1.24zM28.151 47.644v53.186c0 13.542 6.56 21.1 19.68 21.1q5.268 0 10.382-.465 5.115-.465 8.678-1.396V47.644h15.496v82.039q-6.974 2.481-16.116 3.566a137 137 0 0 1-18.44 1.24c-11.57 0-20.352-3.68-26.343-9.469Q12.5 116.336 12.5 98.66V47.643z" style="font-size:40px;font-style:normal;font-variant:normal;font-weight:700;font-stretch:normal;text-align:start;line-height:125%;text-anchor:start;fill:#231f20;fill-opacity:1;stroke:none;font-family:Xenu"/><path d="M95 50c0 24.852-20.148 45-45 45C25.145 95 5 74.852 5 50 5 25.147 25.146 5 50 5c24.852 0 45 20.147 45 45" style="fill:#f47421;fill-opacity:1;fill-rule:nonzero;stroke:none" transform="translate(517.833 9.834)scale(.73333)"/><path d="M62.296 28.701a6.006 6.006 0 1 0-2.198-8.204 6.005 6.005 0 0 0 2.198 8.204M50 67.55a17.5 17.5 0 0 1-7.393-1.633l-4.174 7.48A26 26 0 0 0 50 76.1c2.416 0 4.752-.335 6.973-.95a8.42 8.42 0 0 1 4.11-5.956 8.42 8.42 0 0 1 7.203-.583c4.442-4.368 7.333-10.311 7.754-16.93l-8.562-.125C66.69 60.522 59.168 67.55 50 67.55m0-35.1c9.169 0 16.69 7.03 17.478 15.994l8.562-.125c-.422-6.618-3.312-12.561-7.755-16.93a8.42 8.42 0 0 1-7.203-.584 8.42 8.42 0 0 1-4.11-5.955 26.1 26.1 0 0 0-18.539 1.753l4.174 7.48A17.5 17.5 0 0 1 50 32.45M32.45 50c0-5.938 2.951-11.182 7.463-14.357l-4.392-7.358c-5.258 3.513-9.17 8.882-10.794 15.172A8.42 8.42 0 0 1 27.837 50a8.42 8.42 0 0 1-3.11 6.543c1.624 6.29 5.535 11.66 10.793 15.173l4.393-7.358C35.4 61.182 32.45 55.938 32.45 50m29.847 21.298a6.005 6.005 0 0 0-2.199 8.205 6.006 6.006 0 1 0 10.403-6.006 6.006 6.006 0 0 0-8.204-2.199M19.4 43.993a6.007 6.007 0 1 0 0 12.015 6.007 6.007 0 1 0 0-12.015" style="fill:#fff;fill-opacity:1;fill-rule:nonzero;stroke:none" transform="translate(517.833 9.834)scale(.73333)"/></svg>