<?xml version="1.0" encoding="UTF-8"?>
<!DOCTYPE svg PUBLIC "-//W3C//DTD SVG 1.1//EN" "http://www.w3.org/Graphics/SVG/1.1/DTD/svg11.dtd">
<!-- Creator: CorelDRAW -->
<svg xmlns="http://www.w3.org/2000/svg" xml:space="preserve" width="1181px" height="973px" version="1.1" style="shape-rendering:geometricPrecision; text-rendering:geometricPrecision; image-rendering:optimizeQuality; fill-rule:evenodd; clip-rule:evenodd"
viewBox="0 0 61150000 50359000"
 xmlns:xlink="http://www.w3.org/1999/xlink"
 xmlns:xodm="http://www.corel.com/coreldraw/odm/2003">
 <defs>
  <style type="text/css">
   <![CDATA[
    .fil0 {fill:#434242}
    .fil4 {fill:#1B6388}
    .fil3 {fill:#257CAA}
    .fil2 {fill:#29AAF5}
    .fil6 {fill:#8DB9DA}
    .fil5 {fill:#95D2F8}
    .fil1 {fill:#F6F8FD}
    .fil8 {fill:black;fill-rule:nonzero}
    .fil7 {fill:white;fill-rule:nonzero}
   ]]>
  </style>
 </defs>
 <g id="Слой_x0020_1">
  <metadata id="CorelCorpID_0Corel-Layer"/>
  <polygon class="fil0" points="0,50359000 61150000,50359000 61150000,0 0,0 "/>
  <path class="fil1" d="M34552000 37871000c17000,723000 -372000,902000 -539000,1311000 5704000,86000 11802000,-2000 17583000,6000 863000,1000 2017000,135000 2744000,-191000 603000,-270000 1173000,-872000 1241000,-1734000 277000,-3511000 492000,-7514000 824000,-10927000 176000,-1812000 255000,-3641000 421000,-5432000 44000,-480000 338000,-3658000 195000,-4015000 -130000,-326000 -417000,-698000 -815000,-693000l-21569000 -6000c-144000,2459000 160000,21262000 -85000,21681000z"/>
  <path class="fil2" d="M27458000 15300000c-257000,341000 -567000,425000 -599000,1109000 -24000,518000 9000,1104000 8000,1633000l-1000 16524000c-12000,2144000 104000,4501000 -15000,6615000 -1000,447000 -40000,1234000 16000,1644000 64000,455000 452000,889000 995000,607000 339000,-177000 716000,-491000 1042000,-701000 1108000,-713000 2900000,-2032000 4075000,-2838000 265000,-183000 817000,-638000 1034000,-711000 167000,-409000 556000,-588000 539000,-1311000l38000 -21757000 -14000 -6001000c-517000,560000 -2804000,2147000 -3550000,2647000l-3568000 2540000z"/>
  <path class="fil3" d="M26851000 41181000c119000,-2114000 3000,-4471000 15000,-6615000l1000 -16524000c1000,-529000 -32000,-1115000 -8000,-1633000 32000,-684000 342000,-768000 599000,-1109000 -536000,9000 -1125000,-97000 -1584000,-259000 -403000,-143000 -931000,-506000 -1368000,-401000 -250000,73000 -151000,818000 -148000,1322000 2000,525000 0,1049000 0,1574000l1000 18603000c0,934000 72000,2246000 -29000,3137000l-16580000 11000c-69000,763000 200000,1359000 873000,1720000 500000,269000 1855000,162000 2505000,160000 1167000,-5000 15210000,-46000 15723000,14000z"/>
  <path class="fil2" d="M4441000 11989000l16738000 14000c155000,-487000 905000,-3635000 908000,-4039000 -576000,63000 -4469000,15000 -5394000,15000 -825000,1000 -10226000,-82000 -10797000,59000 -600000,148000 -1193000,739000 -1381000,1314000 -106000,322000 -146000,2279000 -74000,2637000z"/>
  <path class="fil4" d="M4441000 11989000c214000,163000 1178000,69000 1460000,71000l10736000 6000c4077000,-14000 8208000,-65000 12281000,-5000 -77000,92000 -3000,21000 -104000,104000l-4043000 2260000c-173000,105000 -156000,68000 -265000,215000 437000,-105000 965000,258000 1368000,401000 459000,162000 1048000,268000 1584000,259000l3568000 -2540000c746000,-500000 3033000,-2087000 3550000,-2647000l14000 6001000 81000 0c-267000,-1515000 375000,-6408000 -416000,-7373000 -410000,-501000 -931000,-770000 -1825000,-772000l-7756000 1000c-814000,2000 -1795000,50000 -2587000,-6000 -3000,404000 -753000,3552000 -908000,4039000l-16738000 -14000z"/>
  <path class="fil3" d="M45339000 16122000l10167000 40000c23000,-797000 87000,-1599000 134000,-2391000 55000,-906000 129000,-1519000 -443000,-2085000 -565000,-560000 -1156000,-484000 -2084000,-479000 -843000,4000 -1686000,-4000 -2529000,-1000 -2088000,9000 -4785000,-497000 -5066000,2562000 -72000,780000 -120000,1575000 -179000,2354000z"/>
  <path class="fil5" d="M9330000 24654000l9330000 0c861000,1000 1232000,11000 1209000,-938000 -24000,-1006000 -977000,-792000 -2221000,-794000l-7194000 -5000c-643000,2000 -1494000,-164000 -1785000,363000 -53000,95000 -392000,1369000 661000,1374000z"/>
  <path class="fil5" d="M9037000 18294000c-347000,113000 -425000,364000 -430000,815000 -15000,1177000 693000,859000 3027000,847000 760000,-4000 4687000,88000 5085000,-34000 679000,-209000 442000,-1236000 351000,-1358000 -54000,-74000 -281000,-249000 -394000,-278000 -231000,-58000 -7531000,-27000 -7639000,8000z"/>
  <path class="fil5" d="M9836000 16347000c933000,-3000 6622000,48000 6870000,-27000 650000,-195000 538000,-1179000 300000,-1403000 -381000,-361000 -1403000,-235000 -2168000,-235000l-4721000 -1000c-719000,0 -1485000,-108000 -1515000,659000 -42000,1056000 332000,1010000 1234000,1007000z"/>
  <path class="fil6" d="M34552000 37871000c245000,-419000 -59000,-19222000 85000,-21681000l21569000 6000c-126000,-76000 -80000,-60000 -277000,-67000 -141000,-4000 -284000,15000 -423000,33000l-10167000 -40000 -10668000 -8000 -81000 0 -38000 21757000z"/>
  <path class="fil1" d="M10587000 9213000c-1121000,404000 -504000,1903000 535000,1574000 1029000,-325000 508000,-1950000 -535000,-1574000z"/>
  <path class="fil1" d="M7521000 9192000c-1103000,251000 -727000,1843000 370000,1617000 1044000,-215000 724000,-1867000 -370000,-1617000z"/>
  <g id="_7-Zip_Icon.svg">
   <rect class="fil7" x="37495000" y="21171000" width="13591000" height="10355000"/>
   <g>
    <path class="fil8" d="M46556000 25378000l0 971000 1715000 0 -1715000 2491000 0 1068000 2912000 0 0 -971000 -1715000 1000 1715000 -2492000 0 -1068000 -2912000 0zm-5501000 -971000l0 971000 2427000 0 -1456000 1456000 0 2104000 1294000 0 0 -2104000 1294000 -1294000 0 -1133000 -3559000 0zm-1295000 -970000l5825000 0 0 6471000 -5825000 0 0 -6471000zm-2265000 -2266000l0 11002000 14238000 0 0 -11002000 -14238000 0zm971000 971000l12296000 0 0 9061000 -12296000 0 0 -9061000zm0 0l0 0 0 0z"/>
   </g>
  </g>
 </g>
</svg>
