<?xml version="1.0" encoding="UTF-8"?>
<!DOCTYPE svg PUBLIC "-//W3C//DTD SVG 1.1//EN" "http://www.w3.org/Graphics/SVG/1.1/DTD/svg11.dtd">
<!-- Creator: CorelDRAW -->
<svg xmlns="http://www.w3.org/2000/svg" xml:space="preserve" width="37mm" height="49.9999mm" version="1.1" style="shape-rendering:geometricPrecision; text-rendering:geometricPrecision; image-rendering:optimizeQuality; fill-rule:evenodd; clip-rule:evenodd"
viewBox="0 0 1523.53 2058.81"
 xmlns:xlink="http://www.w3.org/1999/xlink"
 xmlns:xodm="http://www.corel.com/coreldraw/odm/2003">
 <defs>
  <style type="text/css">
   <![CDATA[
    .fil0 {fill:#FF8040}
   ]]>
  </style>
 </defs>
 <g id="Слой_x0020_1">
  <metadata id="CorelCorpID_0Corel-Layer"/>
  <rect class="fil0" y="267.65" width="247.06" height="247.06"/>
  <rect class="fil0" x="370.59" y="20.59" width="247.06" height="247.06"/>
  <rect class="fil0" x="782.35" y="20.59" width="247.06" height="247.06"/>
  <rect class="fil0" x="1152.94" width="370.59" height="370.59"/>
  <polygon class="fil0" points="1317.64,1415.35 1070.59,1415.35 1070.59,1044.76 1317.64,1044.76 1317.64,921.23 1441.17,921.23 1441.17,535.29 1070.59,535.29 1070.59,411.76 576.47,411.76 576.47,535.29 329.41,535.29 329.41,658.82 205.88,658.82 205.88,1811.76 329.41,1811.76 329.41,1935.28 452.94,1935.28 452.94,2058.81 1194.11,2058.81 1194.11,1935.28 1441.17,1935.28 1441.17,1538.88 1317.64,1538.88 "/>
 </g>
</svg>
