<?xml version="1.0" encoding="UTF-8"?>
<!DOCTYPE svg PUBLIC "-//W3C//DTD SVG 1.1//EN" "http://www.w3.org/Graphics/SVG/1.1/DTD/svg11.dtd">
<!-- Creator: CorelDRAW -->
<svg xmlns="http://www.w3.org/2000/svg" xml:space="preserve" width="125.959mm" height="125.941mm" version="1.1" style="shape-rendering:geometricPrecision; text-rendering:geometricPrecision; image-rendering:optimizeQuality; fill-rule:evenodd; clip-rule:evenodd"
viewBox="0 0 1776.21 1775.96"
 xmlns:xlink="http://www.w3.org/1999/xlink"
 xmlns:xodm="http://www.corel.com/coreldraw/odm/2003">
 <defs>
  <style type="text/css">
   <![CDATA[
    .fil0 {fill:#FEFEFE}
    .fil4 {fill:#FFEC1B}
    .fil1 {fill:#FFEC1B}
    .fil2 {fill:#C4204B}
    .fil3 {fill:black}
   ]]>
  </style>
 </defs>
 <g id="Слой_x0020_1">
  <metadata id="CorelCorpID_0Corel-Layer"/>
  <path class="fil0" d="M876.91 731.13l22.39 0 0 190.31 -22.39 0 0 -190.31zm85.83 -59.71l0 -11.19c0,-14.27 -1.15,-1.36 3.73,-11.2l14.93 0c3.99,17.14 5.28,21.86 -18.66,22.39zm-167.92 -22.39l14.93 0c2.56,4.55 3.73,3.99 3.73,11.2l0 11.19c-22.81,-0.51 -23.11,-5.1 -18.66,-22.39zm89.56 -421.66c75.08,0 157.67,30.72 209.97,81.09 49.36,47.53 96.01,124.87 96.01,198.78 0,114.82 -9.48,137.51 -78.34,235.11 -32.94,46.69 -79.85,106.94 -85.85,179.09l-63.44 0 0 -190.31c26.22,0 44.88,-0.42 64.1,-21.73 25.02,-27.75 25.6,-77.84 -5.33,-104.2 -34.36,-29.28 -80.1,-23.36 -104.28,5.78 -13.12,15.81 -17.91,32.03 -17.91,60.45l-22.39 0c0,-114.13 -145.53,-111.49 -145.53,-7.46 0,37.54 35.09,67.17 59.7,67.17l22.39 0 0 190.31 -63.44 0c-12.69,-152.48 -181.83,-214.37 -164.54,-410.77 14.57,-165.44 147.14,-283.3 298.87,-283.3zm-358.23 250.01l-305.99 0c-89.47,-0.06 -74.63,-6.43 -74.63,145.53 -45,0 -145.53,-11.98 -145.53,26.12l0 1097.07c0,18.05 11.8,29.85 29.85,29.85l1716.51 0c18.05,0 29.85,-11.8 29.85,-29.85l0 -1097.07c0,-13.58 -18.19,-26.12 -33.58,-26.12l-111.95 0 0 -119.41c0,-11.17 -13.22,-21.91 -23.82,-24.69 -15.29,-4.01 -34.64,-1.44 -50.81,-1.43l-305.99 0c-4.89,-58.73 -40.11,-125.74 -72.97,-169.58 -51.09,-68.14 -161.13,-140.14 -266.6,-140.14 -67.14,0 -111.09,1.61 -174.18,31.05 -75.39,35.18 -125.64,85.87 -168.44,156.2 -16.14,26.52 -38.56,84.51 -41.72,122.47z"/>
  <path class="fil1" d="M884.37 227.37c75.08,0 157.67,30.72 209.97,81.09 49.36,47.53 96.01,124.87 96.01,198.78 0,114.82 -9.48,137.51 -78.34,235.11 -32.94,46.69 -79.85,106.94 -85.85,179.09l-212.7 0 -63.44 0c-12.69,-152.48 -181.83,-214.37 -164.54,-410.77 14.57,-165.44 147.14,-283.3 298.87,-283.3z"/>
  <path class="fil2" d="M1630.68 1600.58l0 -914.23 85.82 0 0 1029.9 -794.82 0c12.09,-22.84 11.48,-37.28 40.4,-60.35 19.69,-15.71 44.52,-25.28 78.86,-25.62l515.11 0.15c36.31,0.01 74.63,7.43 74.63,-29.85zm-1570.98 -914.23l85.82 0 0 914.23c0,36.18 35.47,29.88 70.9,29.85l515.08 -0.13c34.44,0 58.68,8.27 78.35,22.41 17.78,12.78 38.61,35.6 40.93,63.55l-791.09 0 0 -1029.9zm858.25 925.42l0 -380.62c29.29,-2.44 60.37,-31.91 72.17,-54.7 13.44,-25.98 0.54,-21.8 28.52,-34.92 20.37,-9.55 21.23,-11.42 36.54,-26.9 75.28,-76.19 -23.08,-145.08 82.16,-302.19 8.64,-12.9 17.16,-24.69 26.34,-37.1 48.76,-65.95 90.12,-135.23 90.12,-234.52l317.18 0 0 1029.9 -552.27 0c-43.41,0 -74.52,23.48 -100.75,41.05zm-712.72 -1070.95l317.18 0c0,82.67 28.58,145.61 64.88,200.06 33.64,50.45 77.7,95.61 94.92,158.83 24.33,89.37 -17.47,157.81 38.82,214.92 15.26,15.48 16.22,17.38 36.53,26.9 27.98,13.12 15.07,8.94 28.52,34.92 11.9,22.99 42.14,52.21 72.17,54.7l0 380.62c-26.24,-17.57 -57.34,-41.05 -100.75,-41.05l-552.27 0 0 -1029.9zm682.87 634.36c-16.22,0 -36.68,-6.01 -41.05,-22.39l82.09 0c-9.29,13.88 -17.8,22.39 -41.05,22.39zm-138.07 -156.72l0 -33.58 276.13 0c0,128.43 -14.44,104.48 -227.62,104.48 -16.35,0 -30.76,-11.88 -37.64,-22.06 -8.13,-12.02 -10.87,-28.09 -10.87,-48.84zm126.87 -287.33l22.39 0 0 190.31 -22.39 0 0 -190.31zm85.83 -59.71l0 -11.19c0,-14.27 -1.15,-1.36 3.73,-11.2l14.93 0c3.99,17.14 5.28,21.86 -18.66,22.39zm-167.92 -22.39l14.93 0c2.56,4.55 3.73,3.99 3.73,11.2l0 11.19c-22.81,-0.51 -23.11,-5.1 -18.66,-22.39zm89.56 -421.66c75.08,0 157.67,30.72 209.97,81.09 49.36,47.53 96.01,124.87 96.01,198.78 0,114.82 -9.48,137.51 -78.34,235.11 -32.94,46.69 -79.85,106.94 -85.85,179.09l-63.44 0 0 -190.31c26.22,0 44.88,-0.42 64.1,-21.73 25.02,-27.75 25.6,-77.84 -5.33,-104.2 -34.36,-29.28 -80.1,-23.36 -104.28,5.78 -13.12,15.81 -17.91,32.03 -17.91,60.45l-22.39 0c0,-114.13 -145.53,-111.49 -145.53,-7.46 0,37.54 35.09,67.17 59.7,67.17l22.39 0 0 190.31 -63.44 0c-12.69,-152.48 -181.83,-214.37 -164.54,-410.77 14.57,-165.44 147.14,-283.3 298.87,-283.3zm-358.23 250.01l-305.99 0c-89.47,-0.06 -74.63,-6.43 -74.63,145.53 -45,0 -145.53,-11.98 -145.53,26.12l0 1097.07c0,18.05 11.8,29.85 29.85,29.85l1716.51 0c18.05,0 29.85,-11.8 29.85,-29.85l0 -1097.07c0,-13.58 -18.19,-26.12 -33.58,-26.12l-111.95 0 0 -119.41c0,-11.17 -13.22,-21.91 -23.82,-24.69 -15.29,-4.01 -34.64,-1.44 -50.81,-1.43l-305.99 0c-4.89,-58.73 -40.11,-125.74 -72.97,-169.58 -51.09,-68.14 -161.13,-140.14 -266.6,-140.14 -67.14,0 -111.09,1.61 -174.18,31.05 -75.39,35.18 -125.64,85.87 -168.44,156.2 -16.14,26.52 -38.56,84.51 -41.72,122.47z"/>
  <path class="fil3" d="M291.06 1365.49c0,13.64 10.3,29.85 22.39,29.85l436.59 0c25.46,0 36.02,-59.7 -7.46,-59.7l-421.66 0c-18.05,0 -29.85,11.8 -29.85,29.85z"/>
  <path class="fil3" d="M1003.78 1365.49c0,13.64 10.3,29.85 22.39,29.85l429.13 0c40.06,0 40.06,-59.7 0,-59.7l-421.66 0c-18.05,0 -29.85,11.8 -29.85,29.85z"/>
  <path class="fil3" d="M1108.27 1201.3c0,18.05 11.8,29.85 29.85,29.85l317.18 0c37.22,0 50.81,-63.44 -18.66,-63.44l-279.86 0c-26.83,0 -48.51,6.97 -48.51,33.58z"/>
  <path class="fil3" d="M291.06 1193.84c0,19.42 4.53,37.32 29.85,37.32l320.91 0c25.39,0 51.83,-63.44 -22.39,-63.44l-279.86 0c-20.88,0 -48.51,7.28 -48.51,26.12z"/>
  <path class="fil3" d="M1212.75 1033.38c0,18.44 15.14,33.58 33.58,33.58l205.23 0c45.09,0 45.09,-63.44 0,-63.44l-205.23 0c-16.64,0 -33.58,15.11 -33.58,29.85z"/>
  <path class="fil3" d="M291.06 1029.65c0,19.75 7.27,37.32 33.58,37.32l205.23 0c42.76,0 42.76,-63.44 0,-63.44l-205.23 0c-15.39,0 -33.58,12.54 -33.58,26.12z"/>
  <path class="fil4" d="M421.66 783.37c0,21.07 13.58,29.85 33.58,29.85 13.31,0 44.48,-21.6 57.25,-28.57 24.45,-13.35 43.5,-19.45 43.5,-42.33 0,-21.07 -13.58,-29.85 -33.58,-29.85 -11.38,0 -67.71,33.91 -83.49,43.39 -10.92,6.56 -17.27,11.76 -17.27,27.51z"/>
  <path class="fil4" d="M1220.21 742.32c0,14.6 6.03,20.46 14.89,26.15 18.61,11.96 71.81,44.75 89.59,44.75 15.97,0 29.85,-11.5 29.85,-26.12 0,-27.06 -24.53,-34.56 -41.25,-44.57 -16.62,-9.95 -44.62,-30.06 -63.23,-30.06 -18.05,0 -29.85,11.8 -29.85,29.85z"/>
  <path class="fil4" d="M858.25 22.14c0,58.84 -12.12,123.14 29.85,123.14 41.66,0 29.85,-63 29.85,-115.68 0,-43.48 -59.71,-32.93 -59.71,-7.46z"/>
  <path class="fil4" d="M1220.21 320.66c0,16.64 15.11,33.58 29.85,33.58 7.4,0 104.48,-44.8 104.48,-70.9 0,-16.64 -14.27,-49.42 -59.01,-21.7 -24.71,15.31 -75.32,35.88 -75.32,59.02z"/>
  <path class="fil4" d="M421.66 279.61c0,23.48 21.16,31.98 42.33,43.5 11.21,6.1 49.63,31.13 58.42,31.13 26.36,0 49.66,-34.17 19.42,-56.73l-86.58 -47.75c-16.64,0 -33.58,15.11 -33.58,29.85z"/>
 </g>
</svg>
