<?xml version="1.0" encoding="UTF-8"?>
<!DOCTYPE svg PUBLIC "-//W3C//DTD SVG 1.1//EN" "http://www.w3.org/Graphics/SVG/1.1/DTD/svg11.dtd">
<!-- Creator: CorelDRAW -->
<svg xmlns="http://www.w3.org/2000/svg" xml:space="preserve" width="2500px" height="446px" version="1.1" style="shape-rendering:geometricPrecision; text-rendering:geometricPrecision; image-rendering:optimizeQuality; fill-rule:evenodd; clip-rule:evenodd"
viewBox="0 0 2500 446"
 xmlns:xlink="http://www.w3.org/1999/xlink"
 xmlns:xodm="http://www.corel.com/coreldraw/odm/2003">
 <defs>
  <style type="text/css">
   <![CDATA[
    .fil0 {fill:#00ADEF;fill-rule:nonzero}
   ]]>
  </style>
 </defs>
 <g id="Слой_x0020_1">
  <metadata id="CorelCorpID_0Corel-Layer"/>
  <g>
   <path class="fil0" d="M204 35c80,-12 161,-24 241,-35 0,71 0,141 0,211 -80,0 -161,2 -241,2 0,-59 0,-119 0,-178l0 0zm-204 28c60,-9 121,-17 182,-25 0,58 0,117 0,175 -61,0 -121,1 -182,1l0 -151zm961 10c16,-10 36,11 27,27 -4,12 -21,16 -30,8 -12,-8 -10,-29 3,-34l0 0zm417 -2c10,0 20,0 31,0l0 285 -30 0c0,-10 0,-21 -1,-31 -22,40 -81,48 -115,19 -24,-21 -31,-54 -30,-85 0,-31 10,-64 35,-84 32,-26 89,-25 111,14 0,-39 0,-79 0,-118l0 0zm-66 113c-24,4 -41,26 -46,49 -6,28 -5,60 13,84 19,25 61,26 81,2 14,-14 18,-35 18,-54 0,-20 2,-43 -12,-60 -12,-17 -34,-25 -54,-20l0 0zm969 -102c3,0 8,-1 11,-1 0,92 0,184 0,276l-30 0c0,-77 -1,-153 0,-230 -19,13 -40,25 -63,31 0,-10 0,-20 0,-31 30,-10 56,-26 81,-45l0 0zm122 0c27,-4 56,5 72,28 22,32 24,72 26,110 -1,39 -5,82 -30,114 -23,30 -71,38 -102,15 -25,-18 -35,-50 -40,-79 -5,-44 -5,-90 11,-131 10,-28 33,-53 64,-56l0 0zm-5 27c-27,11 -35,43 -39,69 -4,36 -5,74 4,110 4,18 13,36 31,44 20,10 46,1 57,-18 17,-29 17,-63 17,-96 -1,-32 -2,-66 -19,-93 -10,-17 -33,-23 -51,-16l0 0zm-1817 -23c11,0 23,0 34,0 18,65 36,129 53,194 4,14 7,28 8,41 19,-79 44,-157 66,-236 10,0 20,0 30,0 16,56 30,112 46,168 6,22 13,44 16,67 17,-79 41,-157 60,-236 11,0 23,0 34,0 -25,90 -50,180 -75,270l-37 0c-18,-65 -36,-129 -54,-194 -3,-10 -4,-21 -5,-32 -1,9 -3,19 -5,28 -19,66 -37,132 -55,198 -12,1 -24,1 -37,1 -26,-90 -52,-180 -78,-270l0 0zm485 108c17,-31 58,-45 91,-31 26,10 36,40 37,66 1,42 0,85 1,127 -10,0 -20,0 -31,0 0,-41 1,-82 -1,-122 -1,-20 -9,-44 -31,-50 -32,-10 -64,19 -65,51 -1,40 0,81 0,121l-31 0c0,-65 0,-129 0,-194l31 0c0,10 0,21 0,31l0 0zm461 -36c27,-2 58,2 78,22 23,21 30,55 29,85 0,27 -10,55 -30,74 -42,38 -119,30 -146,-23 -21,-44 -17,-104 21,-137 14,-12 31,-17 48,-21l0 0zm-6 28c-45,14 -53,72 -39,111 11,34 55,49 86,33 21,-10 31,-34 33,-55 2,-26 0,-54 -18,-74 -15,-17 -41,-21 -62,-15l0 0zm469 -28c19,-1 39,1 57,8 5,9 1,22 2,33 -21,-13 -51,-22 -74,-8 -16,9 -17,34 -1,44 22,14 51,18 70,37 22,21 17,61 -9,77 -31,20 -72,18 -104,3 0,-11 0,-23 0,-34 23,18 56,27 83,15 16,-8 17,-33 3,-43 -22,-16 -53,-19 -73,-40 -20,-20 -16,-56 6,-73 11,-10 26,-13 41,-17l0 0zm-1037 5c10,0 20,0 31,0l0 194 -31 0c0,-65 0,-129 0,-194l0 0zm692 0l32 0c13,46 25,92 38,138 3,9 4,18 4,27 14,-56 33,-110 49,-165l28 0c14,55 31,109 43,165 12,-55 29,-109 42,-164 10,-1 21,-1 31,-1 -19,65 -38,129 -58,194l-32 0c-14,-53 -32,-104 -43,-157 -13,53 -32,105 -47,157l-31 0c-19,-65 -39,-129 -58,-194l0 0zm-1646 70c61,0 121,1 182,1 0,59 0,117 0,176 -61,-9 -121,-17 -182,-25l0 -152zm204 2l242 0c0,70 0,141 0,211 -80,-12 -161,-23 -241,-34 0,-59 0,-118 0,-177l0 0zm0 0l0 0 0 0z"/>
  </g>
 </g>
</svg>
